<svg xmlns="http://www.w3.org/2000/svg" viewBox="0 0 791.62 234.81"><title>zombieMonkey</title><path d="M41,84l-4.7,12.77-3.23,8.52a79.92,79.92,0,0,1-3.12,8.57q-1.74,4-3.28,8.36l-1.31,4.47-5.85,17.36-1.31,3.72,6.31.22,13.33.87,2.7-2.19,3.93-2.4L41,159.16l-6.55,1.42-6.85-.22-6.94.11L6.85,159.6l-6.47-.22q1.55-4.59,3-8.41t3.08-8.19q2.39-6.22,4.77-12.72t4.63-12.83l4.39-13.1,6.08-17.47-4.16.22-3.93.76-6.93-.22-2.85.77L5.62,90.48l-.23-10L5.62,76l3.08-.11H19.26l14.09-1.09,10.1,1.09Z" transform="translate(-0.38 -0.61)" style="fill:#8ba936"/><path d="M87.2,93.1l4.78,7,2.23,3.82,2.47,9.39-.08,5,.16,4.91-.39,4.8-.61,4.81-1.55,9.61-4.39,7.64-2.23,3.82-3.08,2.51-3.16,2.08-3.54.43L71,160.47l-7-.22-3.32-1.63-3.16-2.3a29.37,29.37,0,0,1-2.77-2.89,32.91,32.91,0,0,1-2.54-3.33c-.72-1.09-1.23-1.91-1.54-2.46s-.57-1-.77-1.47a11.47,11.47,0,0,1-.58-1.53c-.18-.58-.5-1.45-1-2.62a42.87,42.87,0,0,1-2.08-7,47.82,47.82,0,0,1-.89-6.88,63.76,63.76,0,0,1,0-7c.13-2.4.32-4.94.58-7.64l.77-4.8,2.69-9.07,2.7-3.38,2.47-3.49L64,86.22l7.08-1a14.16,14.16,0,0,1,4.36.66,21,21,0,0,1,4,1.74,36.3,36.3,0,0,1,3.82,2.51C84.49,91.1,85.82,92.08,87.2,93.1ZM71,149.34l3.54-.88L77.73,146l4.16-8.19,1.92-9.61v-4.91l-.69-4.91L81,109.15l-1.15-4.69-2.39-3.71-3-2.73L71,96.81l-6.17,4.48-2.92,2.95-1.55,4.48-1.54,9.61-.23,4.91-.46,4.91.62,5L62,142l2.39,3.82Z" transform="translate(-0.38 -0.61)" style="fill:#8ba936"/><path d="M119.48,86.44l1.16,4.48.23,5,5.47,22.93,2.47,9.06,1.31,4.48,1.07,5.35,1.47-5.24,1.77-9.28,1.15-4.59,2-9.28,1.46-4.37c.51-1.67.91-3.22,1.2-4.64s.62-2.93,1-4.53l2.31-8.73c.66-.07,1.23-.15,1.69-.22l1.35-.22a8.58,8.58,0,0,1,1.35-.11h1.77l6.47.55,6.7-.55-2.62,4.59-.38,8.19.46,9.5c.05,1.45.06,2.76,0,3.93s-.05,2.31-.08,3.44-.06,2.25-.11,3.38-.08,2.35-.08,3.66V128l-.31,9.61.39,17.8,2.23,3.82c-.46.08-1.14.17-2,.28l-2.77.32c-.95.11-1.85.2-2.7.28s-1.45.1-1.81.1l-3.24-.76-3.15.11-3-.22,2-3.93,1.08-8.41a16.69,16.69,0,0,0,0-2.51c-.07-1.38-.15-2.87-.23-4.48s-.16-3.14-.27-4.64-.15-2.52-.15-3.11l.08-4.91-.47-9.94.62-4.91-.08-4.15c-.25,1.46-.42,2.48-.5,3.06a10.3,10.3,0,0,1-.27,1.47,10,10,0,0,1-.46,1.37c-.21.51-.54,1.45-1,2.83s-.73,2.19-1,2.84a16,16,0,0,0-.54,1.81c-.13.54-.26,1.16-.39,1.85s-.29,1.69-.5,3c-.15.81-.35,1.9-.58,3.28s-.49,2.8-.77,4.26-.54,2.84-.77,4.15-.42,2.25-.58,2.84a23.24,23.24,0,0,1-.73,2.23c-.33.92-.67,1.83-1,2.73s-.64,1.75-.92,2.52-.48,1.29-.58,1.58l-1.08,4.8-.54,5.57-1.58-.27-2.19-.33q-1.15-.16-2.16-.27c-.67-.07-1.16-.11-1.46-.11l-3.93.65-1.16-4.69-.15-5.13-2.24-9.17-1.31-4.59-3.39-13.76c-.1-.36-.29-1-.57-2s-.6-1.93-.93-3-.64-1.93-.92-2.73a10.84,10.84,0,0,1-.43-1.31l-.54-4.92-1.31-4.91q-.3,2.63-.42,3.6a13.65,13.65,0,0,0-.12,1.53c0,.37,0,.84,0,1.42s.07,1.68.12,3.28V132.9q0,5.08-.16,9.45a11.81,11.81,0,0,0,0,1.8c0,.84.07,1.71.15,2.62s.15,1.8.23,2.68.14,1.49.19,1.85l.93,3.93,1.77,4.37h-3.31l-6.78-.22-3.39.44,2.62-4.26a8.82,8.82,0,0,0,.15-1.42c0-.8.1-1.67.16-2.62s.08-1.84.11-2.68,0-1.36,0-1.58l-.23-4.8.23-14.42.08-9.61-.31-9.6L102,104l-.85-8.73.54-4.37-2.54-4,3.23-.66,10,.44Z" transform="translate(-0.38 -0.61)" style="fill:#8ba936"/><path d="M195.06,89.39a13.67,13.67,0,0,1,1,1.09q.85,1,1.77,2.19c.62.8,1.18,1.54,1.7,2.23a10.34,10.34,0,0,1,.85,1.26l1,5,.3,5.13-.53,4.81-2.62,8.63,2.46,3.38,1.77,4.37,1,4.8.47,5-.31,5-1.08,4.8-2,4-2.62,3.39-3.08,2.4-3.39,1.42c-.57.14-1.49.31-2.78.49s-2.64.37-4.08.55-2.81.31-4.12.38a18.08,18.08,0,0,1-2.81,0l-9.48.54-3.23-.11,2.61-4.69.31-4.26c.05-.87.05-1.91,0-3.11s-.11-2.44-.19-3.71-.14-2.53-.19-3.77-.08-2.29-.08-3.17l.39-4.8-.08-9.5-.08-9.5-.08-4.81.39-4.69-.15-4.8-.7-8.3-1.92-4.26,3.08-.66,6.32.11A40.67,40.67,0,0,1,185,86.5,43.2,43.2,0,0,1,195.06,89.39ZM181.73,114l3.39-.22,2.93-2.62.69-4.81-.54-5c-1-.73-1.67-1.24-2.08-1.53s-.77-.52-1.08-.71a3.16,3.16,0,0,0-1.11-.38,22.44,22.44,0,0,1-2.2-.54,27.66,27.66,0,0,1,0,2.89c0,1.13-.11,2.26-.19,3.38s-.16,2.17-.23,3.12-.12,1.6-.12,2Zm0,34.39,3.47-.11,3.23-2.18,2.55-3.6.07-5.14-.54-4.8-2.23-3.6-3.08-2.3-3.93-.65c.2,1.82.36,3.08.46,3.77s.17,1.25.19,1.69a11.7,11.7,0,0,1,0,1.64c-.06.65-.11,1.85-.16,3.6l-.15,10.59Z" transform="translate(-0.38 -0.61)" style="fill:#8ba936"/><path d="M223.8,91.36l-.62,8-.15,9.5v4.8l-.16,9.61-.15,4.8.07,9.61.08,4.81.39,13,2.62,5.13-3.32.11-3.16-.11-9.55-.11-3.31-.22,2.31-4.8.08-4.26V137.54c0-3.85.07-7.69.23-11.52s.23-7.91.23-12.28l.15-4.81.08-9.49.08-4.26L208.93,91l-2.16-3.93c1-.22,1.67-.37,2.08-.44s.77-.13,1.08-.16a4.51,4.51,0,0,1,1,0l2,.16,6.39.22h3.16l3.39.44Z" transform="translate(-0.38 -0.61)" style="fill:#8ba936"/><path d="M255.23,98.67a39.85,39.85,0,0,1-4.09,0l-6.08-.11-.46,9.83c-.06,1.24-.09,2.18-.12,2.84a15.78,15.78,0,0,0,0,1.69c0,.47.06,1,.12,1.64s.15,1.51.3,2.67a11.9,11.9,0,0,1,4.43.17,12.85,12.85,0,0,0,4.28.27l2.85-1,3.7-3.39-.23,9.94-.08,9.72-3.24-3.39-6-.65-5.63.32-.08,4.26.24,9.17-.39,5.79,3.7.77,3.7-.66,3.69.11a7.23,7.23,0,0,0,1.16-.16c.56-.11,1.16-.24,1.77-.39s1.2-.29,1.74-.43a3.79,3.79,0,0,0,1.11-.44l3.55-2.73c-.26,1.75-.48,3.21-.66,4.37s-.37,2.24-.58,3.22-.46,2-.77,3.11-.69,2.48-1.15,4.15l-3.08.22-3.39.55-3.39.1-3.39.33c-.77.07-1.42.11-1.93.11a10.59,10.59,0,0,1-1.5-.11l-1.5-.22c-.52-.07-1.13-.18-1.85-.32-1.34-.22-2.21-.39-2.62-.49a4,4,0,0,0-1-.17,3.18,3.18,0,0,0-.88.17,20.33,20.33,0,0,1-2.31.38c-.72.07-1.35.11-1.89.11h-1.54a11,11,0,0,1-1.5-.11c-.52-.07-1.13-.15-1.85-.22l2.31-4.26.54-8.41-.23-4.8.15-4.7.39-4.8V128l-.16-19.11-.07-9.49-.7-4.15-.54-3.93-1.85-4.7,6.94.55,3.39-.33,3.39.22,6.78-.44,6.78.22,7-.66-.77,10.59.07,4.92-2.54-3.39Q257.3,98.57,255.23,98.67Z" transform="translate(-0.38 -0.61)" style="fill:#8ba936"/><path d="M510,80.83l1.54,10a37.2,37.2,0,0,0,1.58,7.1c.74,2.25,1.58,4.44,2.5,6.55l4.39,18.56,1.62,9.61,1.54,3.71,1.31-3.82,2.24-9.28,2.46-9.17,1-4.7,1.23-4.58q.85-3.49,1.39-7.16t1.31-7.15l2.31-9.5,6.63-.33,6.39,1.1,3.24-.88,3.39-.11-1.7,5.46L553.72,99v9.83L553,128.44l-.31,9.83a15.94,15.94,0,0,0-.08,1.91c0,.91,0,1.87,0,2.89s.05,2,.08,3,0,1.64,0,2.07q0,1.53,0,2.52c0,.65,0,1.29,0,1.91s0,1.25.07,1.91.16,1.53.31,2.62l.7,4,2.46,5.35-3.47-.55-3.15-.54-9.63-.11-3.24.76,2.16-4.8.77-4.15v-9.28q.07-7.32.31-15t.07-15.23l-.46-10,.15-5.79q-1.77,7.2-4,14a58.88,58.88,0,0,0-1.54,6.88q-.62,3.72-1.23,6.88l-2.08,9.07-4.78,17.9-.85,4.7-.92,4.37-7.94.54-2.69-9.5-3.47-14.19-.85-4.92-1.77-9.71-2.23-9.5c-.42-2.19-.79-4.06-1.12-5.63s-.7-3-1.08-4.47-.78-2.86-1.19-4.32-.9-3.16-1.47-5.13L500,104.2v9.72l.31,4.8-.08,4.92.08,4.8L500.25,148l.39,9.06.85,4,1.84,4.37-2.34.27-2.93.33q-1.5.16-2.85.27c-.9.07-1.58.11-2,.11l-3.55-.33,2.62-4.91-.15-4.15.15-9,.23-14.74-.38-9.82.07-4.92.7-19.65-.54-13.1-2.85-5,3.62.22,10,.77Z" transform="translate(-0.38 -0.61)" style="fill:#8ba936"/><path d="M600.56,98.3l4.78,7,2.23,3.82L610,118.5l-.07,5,.15,4.91-.38,4.8-.62,4.81-1.54,9.61-4.39,7.64-2.24,3.82-3.08,2.51-3.16,2.08-3.54.44-6.78,1.52-7-.21-3.31-1.64-3.16-2.3a28.25,28.25,0,0,1-2.77-2.89,33.14,33.14,0,0,1-2.55-3.33c-.72-1.09-1.23-1.91-1.54-2.46s-.56-1-.77-1.47a12.38,12.38,0,0,1-.58-1.53c-.18-.58-.5-1.45-1-2.62a43.87,43.87,0,0,1-2.08-7,49.08,49.08,0,0,1-.89-6.88,68.87,68.87,0,0,1,0-7c.13-2.41.33-5,.58-7.65l.77-4.8,2.7-9.06,2.7-3.39L568,97.87l9.4-6.45,7.09-1a14,14,0,0,1,4.35.66,21.38,21.38,0,0,1,4,1.74,35.78,35.78,0,0,1,3.81,2.52Zm-16.18,56.24,3.54-.88,3.16-2.51,4.16-8.19,1.93-9.61v-4.91l-.69-4.91-2.08-9.18-1.16-4.69L590.85,106l-3-2.73-3.47-1.2-6.16,4.47-2.93,3-1.54,4.48-1.54,9.61-.23,4.91-.47,4.91.62,5,3.24,8.84,2.39,3.82Z" transform="translate(-0.38 -0.61)" style="fill:#8ba936"/><path d="M628.14,95.57l1.46,4.26,2.16,3.82,1.85,3.93,3.39,8.3c.15.3.41.82.77,1.59s.73,1.56,1.12,2.4.74,1.64,1.07,2.4l.74,1.69,1.38,4.37,3.39,8.3,1.93,3.6c.1-1.31.18-2.33.23-3s.09-1.39.11-2,0-1.24,0-2,0-1.74,0-3.05l-.08-5.13.31-5.14-.23-10.26.23-5.13-.7-4-.15-4.15-2.47-4.59,3.55-.11,3.39-.11,6.93.22-2.16,4.59a10.63,10.63,0,0,0-.11,1.58c0,.84-.05,1.73-.08,2.68s0,1.84,0,2.67v1.37l-.84,4.8-.16,4.7.39,4.8.46,14.3-.15,4.7-.54,4.8.15,9.5-.08,4.26,1,4,2,4.48c-.72.07-1.34.13-1.85.16s-1,.06-1.5.06h-1.54a17.82,17.82,0,0,1-1.82-.11c-1.13-.07-1.91-.15-2.34-.22a3.77,3.77,0,0,0-1.08,0,9,9,0,0,0-1.12.21c-.46.11-1.28.28-2.47.49l-4.93-12.77-1.61-4.26-5.55-12-1.93-3.93-1.69-4.15L627,124.51l-1.54-4.26L623.52,117l.23,9.71L623.59,142l-.46,5.13.15,5.13-.15,4.26.69,4.15,2.32,4.48-3.39.43-3.47-.87-3.39.44-3.47.22,2.62-4.7a7.41,7.41,0,0,0,.12-1.36c0-.77,0-1.62,0-2.57v-4.26l-.16-4.8.08-4.81c0-1.38,0-3-.12-4.75a45.53,45.53,0,0,1,0-4.86c.05-1.23.18-2.78.39-4.64a47,47,0,0,0,.31-5l-.39-14.31L615,96.23l-2.62-4.48c.88.15,1.56.24,2,.28s.94,0,1.35,0h1.39c.51,0,1.21,0,2.08-.11s1.35-.13,1.89-.16,1-.09,1.5-.17l1.5-.22c.54-.07,1.17-.18,1.89-.32Z" transform="translate(-0.38 -0.61)" style="fill:#8ba936"/><path d="M677.6,96.34l-.16,13.32V112c0,1,0,1.93-.07,3s-.09,2-.12,2.95,0,1.71,0,2.29l.16,4.81,1.92-3.83,4.09-8.51,2.31-4,2.08-4.26,3.54-7.86.39-4,6.7-1.09,6.86.43-2.09,2.62-2.54,1.75c-.1.15-.38.67-.84,1.58s-1,1.91-1.47,3-1.21,2.54-2.08,4.36l-6.78,12.78L686.77,122l1.84,4.58,2.47,3.83,1.77,4.25,3.47,8.85,5.62,12.77,1.93,4,1.77,2.73,2.16,1.75-3.24.66-3.31.32-6.55-.32-3.24-.33-3.39-8.19-1.61-4.15-1.54-4.15-3.39-8.19-1.93-3.82-2.7,4.48-.07,11.35.61,4c.16,1.46.23,2.4.23,2.84a4.47,4.47,0,0,0,.16,1.2,8.67,8.67,0,0,0,.62,1.48q.45.93,1.77,3.54l-3.39-.1-9.55-.11-3.16.11H660.8l2.39-4.81.77-8.41v-9.5l-.15-9.5-.16-9.5.08-4.8.31-9.5-.31-9.06-.85-3.93L661,92.08l3.09.22a10.77,10.77,0,0,1,4.73-.44,20.62,20.62,0,0,0,4.82.11h6.39Z" transform="translate(-0.38 -0.61)" style="fill:#8ba936"/><path d="M736.3,103.87a34.71,34.71,0,0,1-4.08,0l-6.09-.11-.46,9.83c0,1.24-.09,2.18-.12,2.84s0,1.22,0,1.69.07,1,.12,1.64.15,1.51.31,2.67a12.14,12.14,0,0,1,4.43.17,12.78,12.78,0,0,0,4.27.27l2.85-1,3.7-3.39-.23,9.94-.08,9.72-3.23-3.39-6-.65-5.63.33L726,138.7l.23,9.18-.39,5.78,3.7.77,3.7-.66,3.7.11a7.15,7.15,0,0,0,1.15-.16c.57-.11,1.16-.24,1.77-.38s1.2-.29,1.74-.44a3.88,3.88,0,0,0,1.12-.44l3.54-2.73c-.26,1.75-.48,3.21-.66,4.37s-.37,2.24-.57,3.22-.47,2-.77,3.11-.7,2.48-1.16,4.15l-3.08.22-3.39.55-3.39.11-3.39.32c-.77.07-1.41.11-1.93.11a10.59,10.59,0,0,1-1.5-.11l-1.5-.22c-.52-.07-1.13-.18-1.85-.32-1.34-.22-2.21-.38-2.62-.49a4,4,0,0,0-1-.17,3.24,3.24,0,0,0-.89.17,18.2,18.2,0,0,1-2.31.38c-.72.07-1.35.11-1.89.11h-1.54a11,11,0,0,1-1.5-.11c-.51-.07-1.13-.15-1.85-.22l2.31-4.26.54-8.41-.23-4.8.15-4.7.39-4.8v-4.7l-.15-19.1-.08-9.5-.69-4.15-.54-3.93-1.85-4.7,6.93.55,3.39-.33,3.39.22,6.78-.44,6.78.22,7-.66-.77,10.6.08,4.91-2.55-3.39Q738.39,103.76,736.3,103.87Z" transform="translate(-0.38 -0.61)" style="fill:#8ba936"/><path d="M776.44,131.83q-.16,2.5-.27,5.73t-.16,6.6c0,2.26,0,4.44,0,6.56s.16,4,.31,5.67l.39,3.93,2.15,5.35-3.39-.32L766,164.8l-6.55.76,2.62-4.91.08-13.21.46-14.09c-.05-.21-.31-1-.77-2.45s-1-3-1.5-4.7-1.06-3.29-1.54-4.75-.79-2.29-.89-2.51L756,114.35l-3.32-9.49-1.31-5.14-1.77-5-3.31-2.84c1,.15,2.08.26,3.16.33a15.08,15.08,0,0,0,3.16-.11l6.39-.33,6.47-.33L765,96,767,104.2l2.39,8.3.69,4.48,1.77,3.38,4.16-11.46a24.45,24.45,0,0,1,.77-3.17c.36-1.17.72-2.31,1.08-3.44s.68-2.24,1-3.33a11.27,11.27,0,0,0,.43-2.84l-1-4.8,6.93.43,6.78.11-2.39,2.35a4.79,4.79,0,0,0-.85,1,7.27,7.27,0,0,0-.46,1.31,25.86,25.86,0,0,1-1.23,3.16l-2.77,9.18L781,116.65l-2.62,8.3Z" transform="translate(-0.38 -0.61)" style="fill:#8ba936"/><path d="M450.07,93.28c-.29-3.4-.78-6.65-1.36-9.82-1-5.25-2.15-10.23-3.12-15.43a93.92,93.92,0,0,1-1.72-16.34h0a161.62,161.62,0,0,1-16.22-8.25c-16.94-9.71-35.35-23.1-50.78-34.72L371.82,4.9,366.19.62h0V.79c0,.13,0,.26,0,.4l-.75-.58a36.76,36.76,0,0,0,3.33,15.26,90.78,90.78,0,0,1-28.31-10c.08.17.17.33.25.51l-1-.52A29.13,29.13,0,0,0,354.6,20.88c-20.79,9.63-38.67,21.87-50.86,41.7,3.67,19.32-3,21.45-5.41,37.49-22.52-9.48-21.57,8.72-19,25.69h0c1.42,11.58,3.13,23.87,8.48,34.2-.57-2.71-2.1-9.19,3.11-8.93a2.22,2.22,0,0,1,1.08.37c.35.4.7.78,1.06,1.16,2.71,4.46,1.88,17.46,1,21.1a45.57,45.57,0,0,0,5.11-16.54l.3.15c1.16,4.92,1.85,10,.51,14.91,1.57-2.5,3.22-5.1,4.6-7.81-.07,5.68-.15,11.35-.4,17,2.85-4.21,6.11-8,8.8-12.35.86,7.41,1.94,14.42,3.51,21.91,9.37,9.27,25.87,19.94,36.4,24.84,10.31,4.8-1.42.69,6.88,6.82q-2.59,0-5.1.15c-1.65.08-3.28.18-4.91.29-2.41.17-4.81.34-7.26.48l-1,.06h0l1.63.33-2.18.14c9.6,1.85,19.15,4,28.66,6.21-1.2.85-2.4,1.68-3.62,2.48s-2.24,1.47-3.37,2.18h0l0,0h.24l-.76.46c31.34-.2,38.75-10.07,49.39-23.87,1.11-1.38,2.24-2.81,3.42-4.26a121,121,0,0,1,13.35-14.17c0-.22.11-.43.16-.65,1.12-2.92,2.28-5.82,3.44-8.72a34.89,34.89,0,0,0,4.12-10.9l.27-.77a74.92,74.92,0,0,0,6.9,14.77c-.88-8.07.16-16.3.9-24.47a31.77,31.77,0,0,0,4.84,7.53c-1.56-4.91-.18-10.34,1.11-15.22.71,5.77,1.94,11.11,5.74,15.58-1.84-4.05-2.23-20.59,2.52-20.84s4.28,4.41,4,7.11c5.21-10.32,6.13-23.77,7.67-35.25v0C470.74,106.37,472.46,81.89,450.07,93.28Z" transform="translate(-0.38 -0.61)" style="fill:#231f20"/><path d="M350.12,162.12l-29.49-4.67,8.76,21.83,22.29-12S356,163.52,350.12,162.12Z" transform="translate(-0.38 -0.61)" style="fill:#617b24"/><ellipse cx="322.34" cy="168.75" rx="11.35" ry="13.64" transform="translate(83.13 442.63) rotate(-76.61)" style="fill:#617b24"/><path d="M312.06,160.71S302.93,174,326,176.81c0,0,5.73,0,6.35-2.47a22.32,22.32,0,0,0,9.81-3.26s9.28-2.28,10.91-5.1c0,0,1.38-2.9-2.65-3.73-6.69-1.38-22.53-3.66-22.53-3.66S317.39,155,312.06,160.71Z" transform="translate(-0.38 -0.61)" style="fill:#8ba936"/><path d="M353.3,164.73a36.15,36.15,0,0,0-23.08,1.14s1.5-7-10.83-6.66c-8.38.25-3.29-1.92,2.64-1.92,2.84,0,4.93,1.2,7.76,1.58,9.73,1.3,20.63,3.38,20.63,3.38A2.76,2.76,0,0,1,353.3,164.73Z" transform="translate(-0.38 -0.61)" style="fill:#98b93c"/><path d="M330.22,165.87s-10.76-7.76-21.94-5.47c0,0,10.65-4,20-1.59s6,4.28,6,4.28S334.73,163.62,330.22,165.87Z" transform="translate(-0.38 -0.61)" style="fill:#d09d0e"/><path d="M329.3,164.38s-9.43-6.4-19.14-4.64c0,0,9.24-3.16,17.43-1.11s5.23,3.52,5.23,3.52S333.21,162.59,329.3,164.38Z" transform="translate(-0.38 -0.61)" style="fill:#fdbd10"/><path d="M340.71,156.59c23.53,16.14,48.14,15.82,60.23,14.34,4.63-.56,7.9-4.13,7.76-8.5-.42-13.06-4.66-39.75-32.09-42.78-18.05-2-29.31,24.16-43.36,31.19" transform="translate(-0.38 -0.61)" style="fill:#8ba936"/><path d="M392.27,129.46s-2.07,2.71-3.29,4.28-5.43,10.29-5.81,14.43c0,0,5-13,10.78-10.43l2.32-3.28Z" transform="translate(-0.38 -0.61)" style="fill:#231f20"/><path d="M392.27,129.46l4,5L394,137.74a3.74,3.74,0,0,0-1.53-.33c-5.08,0-9.25,10.76-9.25,10.76.38-4.14,4.58-12.86,5.81-14.43s3.29-4.28,3.29-4.28m0-3.08-1.47,1.93s-2.07,2.72-3.28,4.27-5.76,10.74-6.2,15.41L380,161.54l4.92-12.69c1.5-3.85,4.91-9.55,7.49-9.55a1.71,1.71,0,0,1,.75.17l1.42.64.9-1.27,2.33-3.29.82-1.16-.89-1.12-4-5-1.52-1.9Z" transform="translate(-0.38 -0.61)" style="fill:#231f20"/><path d="M363.32,128.94s2.06,2.71,3.29,4.28,5.42,10.29,5.81,14.43c0,0-5-13-10.78-10.43l-2.33-3.28Z" transform="translate(-0.38 -0.61)" style="fill:#231f20"/><path d="M363.32,128.94s2.06,2.71,3.29,4.28,5.42,10.29,5.81,14.43c0,0-4.17-10.76-9.25-10.76a3.74,3.74,0,0,0-1.53.33l-2.33-3.28,4-5m0-3.08-1.51,1.9-4,5-.89,1.11.82,1.16,2.32,3.29.9,1.27,1.42-.64a1.94,1.94,0,0,1,.76-.17c2.57,0,6,5.7,7.48,9.55L375.57,161l-1.27-13.49c-.43-4.66-4.87-13.71-6.2-15.41-1.2-1.54-3.26-4.24-3.28-4.27l-1.47-1.93Z" transform="translate(-0.38 -0.61)" style="fill:#231f20"/><path d="M376.19,177.26a28.84,28.84,0,0,1-4.34-21.33s-8.79,11.37-7.5,22.69S377,183.37,376.19,177.26Z" transform="translate(-0.38 -0.61)" style="fill:#fff"/><path d="M378.26,176.9a27.34,27.34,0,0,0,4.11-20.2s8.32,10.77,7.1,21.48S377.51,182.68,378.26,176.9Z" transform="translate(-0.38 -0.61)" style="fill:#fff"/><path d="M362.74,173.08s-7.07-18.35-3-38.32c0,0-11.12,17.81-11.14,36.31C348.56,180.75,363.06,183.08,362.74,173.08Z" transform="translate(-0.38 -0.61)" style="fill:#fff"/><path d="M391.45,177.86s7.07-18.36,3-38.33c0,0,11.53,17.82,11.14,36.31S391.12,187.85,391.45,177.86Z" transform="translate(-0.38 -0.61)" style="fill:#fff"/><path d="M409.32,170.06s-3.27,17.37-58.87,0c0,0-10.08,1.64-9.44,10.9,0,0,3-4.77,7.88-2,0,0-3.49,4.19-1.94,12.88,0,0,3.88-9.84,7.88-10.28a37.42,37.42,0,0,0-3.74,15.92s2.22-7.09,5.43-6.08c0,0-.53,13.17,8.64,18.82,0,0-1.94-12.3.51-14.91,0,0,1.81,2.17,1.3,4.34,0,0,3.74-8.54,2.93-11.14,0,0,.71,8.32-2,14.29s3.29,16.83,3.29,16.83-.13-17.88,4.72-19.47c0,0-6.68,13.17,3.58,23.16,0,0,.32-6.44,1.48-6.66,0,0,.83,6.35,3,7.31,0,0,.06-7.6,1.42-8.61s7-15.63,6.26-21.06c0,0,3.74,6.37-1,14.47,0,0,9.75-2.89,9.49-19.75,0,0,2.71,6.44,1.35,12.08,0,0,5-6.44,5.49-11,0,0,1.94,2.68,1.42,5.14C408.41,195.22,419.46,186,409.32,170.06Z" transform="translate(-0.38 -0.61)" style="fill:#8ba936"/><path d="M389.13,119s-13.6-9.07-28.58,0c0,0,4.29-11.36,9.77-13.83,0,0,2.3-7.67-1.79-6.51s-2.79-3.11-.79-3.4,11.75-1.59,14.07,1.09-2.58,2.6-2.58,2.6-2.77-.58.39,7.09C379.62,106,388.44,115,389.13,119Z" transform="translate(-0.38 -0.61)" style="fill:#8ba936"/><path d="M321.91,79.59s15.4-11.58,40.8,0c0,0,16.26-4.34,24.78,0,0,0,26-13.77,44.42,2.6,0,0,1.55-21.71-36.67-17.94,0,0-24.75,9.26-38.72,1.44S327.85,66.56,321.91,79.59Z" transform="translate(-0.38 -0.61)" style="fill:#8ba936"/><path d="M423,82.19a43,43,0,0,0-8.82-1.74,45,45,0,0,0-8.91,0l-1.1.11c-.37,0-.73.12-1.1.18-.72.13-1.45.24-2.18.38-1.42.39-2.87.66-4.25,1.18a40,40,0,0,0-8,3.64l-.48.27-.58-.18a55.22,55.22,0,0,0-6.51-1.59,48.3,48.3,0,0,0-6.64-.72,32.07,32.07,0,0,0-6.53.44A17.1,17.1,0,0,0,362,86.36l-.82.5-.91-.47a43.6,43.6,0,0,0-4.85-2.14c-1.68-.63-3.39-1.17-5.11-1.64a42.89,42.89,0,0,0-10.52-1.55,31.29,31.29,0,0,0-10.3,1.52,27.12,27.12,0,0,0-9,5.06l-.17.14-.05,0-.12.1-.26.25c-.17.17-.35.38-.52.58a13.45,13.45,0,0,0-.94,1.35c-.3.48-.56,1-.82,1.51s-.48,1-.67,1.62a31,31,0,0,0-1.69,7c-.18,1.2-.26,2.44-.34,3.65v2.22l.05.44.09.88.09.89c0,.29.11.58.17.87.13.58.22,1.16.37,1.74l.53,1.7a5.93,5.93,0,0,0,.32.83l.35.82a22.24,22.24,0,0,0,3.86,6,23.63,23.63,0,0,0,5.51,4.64l.76.49c.26.16.54.28.81.42l1.64.81,1.71.64a7.41,7.41,0,0,0,.86.31l.89.24a31.24,31.24,0,0,0,7.3,1.07h-.1a26.69,26.69,0,0,0,4.41-1,28.28,28.28,0,0,0,4.25-1.69,23.52,23.52,0,0,0,3.9-2.43,19.83,19.83,0,0,0,3.3-3.24,20.19,20.19,0,0,1-3,3.59A21.42,21.42,0,0,1,349.2,127a28.93,28.93,0,0,1-4.25,2.1,27.78,27.78,0,0,1-4.6,1.36h-3c-.33,0-.65-.05-1-.08l-2-.2c-.65-.09-1.29-.25-1.93-.38l-1-.2c-.32-.07-.63-.19-1-.29l-1.89-.6-1.82-.79a9.34,9.34,0,0,1-.91-.41L325,127c-.57-.34-1.18-.63-1.72-1l-1.63-1.15c-.55-.39-1-.87-1.53-1.3l-.75-.67-.69-.73a25,25,0,0,1-4.58-6.6l-.43-.91a6.47,6.47,0,0,1-.4-.94l-.67-1.91c-.21-.65-.33-1.31-.49-2-.07-.33-.17-.66-.21-1l-.13-1-.12-1-.07-.5v-.51l0-2c.06-1.32.11-2.62.28-3.94A34.85,34.85,0,0,1,313.57,92a21,21,0,0,1,1.76-3.76,14.77,14.77,0,0,1,1.23-1.77c.23-.29.47-.57.74-.85s.27-.27.43-.41L318,85a3.39,3.39,0,0,1,.33-.25l-.17.13A30.69,30.69,0,0,1,328.33,79c.93-.34,1.89-.57,2.84-.82s1.92-.41,2.89-.52a34.74,34.74,0,0,1,5.84-.33,46.48,46.48,0,0,1,11.41,1.76,51,51,0,0,1,5.43,1.84A49.8,49.8,0,0,1,362,83.4l-1.73,0A20.53,20.53,0,0,1,367.34,81a30.92,30.92,0,0,1,7.24-.27,50,50,0,0,1,7,1,52.74,52.74,0,0,1,6.82,2l-1.05.09A42.35,42.35,0,0,1,396,80.39a38.7,38.7,0,0,1,4.52-1c.76-.1,1.53-.17,2.29-.25.38,0,.76-.1,1.15-.11l1.15,0a43.93,43.93,0,0,1,4.59.06l2.27.22,2.26.35A38.93,38.93,0,0,1,423,82.19Z" transform="translate(-0.38 -0.61)" style="fill:#8ba936"/><path d="M433.07,89a26.72,26.72,0,0,1,4.69,18.32,28,28,0,0,1-2.85,9.44,34.39,34.39,0,0,1-5.75,8l-.42.45c-.24.23-.36.33-.54.48s-.66.55-1,.8c-.67.5-1.36,1-2.07,1.41a27.52,27.52,0,0,1-4.5,2.19,22,22,0,0,1-9.9,1.36,19.64,19.64,0,0,1-4.86-1.13,22.77,22.77,0,0,1-2.27-1c-.36-.18-.71-.39-1.07-.59a12,12,0,0,1-1-.63,27.26,27.26,0,0,1-6.89-6.56,37.18,37.18,0,0,0,7.78,4.93,22.52,22.52,0,0,0,4.21,1.44,19.28,19.28,0,0,0,4.32.54,21,21,0,0,0,8.4-1.73,25.56,25.56,0,0,0,3.84-2c.61-.39,1.2-.81,1.77-1.24.29-.22.56-.45.83-.67a3.85,3.85,0,0,0,.33-.3l.37-.4a36.29,36.29,0,0,0,5.3-7,30,30,0,0,0,1.85-4,27.74,27.74,0,0,0,1.23-4.23A32,32,0,0,0,433.07,89Z" transform="translate(-0.38 -0.61)" style="fill:#8ba936"/><path d="M353.41,88.13s15.19,0,7.14,15.77c0,0-1.68,2.32-4-2.6s-5.43-5-5.43-5-2.07-1.21-.91-5.41S353.41,88.13,353.41,88.13Z" transform="translate(-0.38 -0.61)" style="fill:#fff"/><path d="M420,86s15.19,0,7.14,15.78c0,0-1.68,2.31-4-2.61s-5.44-5-5.44-5-2.07-1.21-.91-5.41S420,86,420,86Z" transform="translate(-0.38 -0.61)" style="fill:#fff"/><path d="M413.89,61.78s-10.3-3.37-18.56-1.54-32.44,2.89-36.5,1.54c-10-3.31-23.05-.79-23.05-.79s6.85-6.86,24.59-4.24,27.49-.44,27.49-.44S410.94,54.54,413.89,61.78Z" transform="translate(-0.38 -0.61)" style="fill:#8ba936"/><path d="M325.55,161.08s.19-65.36-2.12-71.7-2.31-11.95-8.29-16.08-6.75-18.15,7.52-17.71c0,0,11.76,1,13.88,2.51s4.43-.22,2.6-.89-12.05-2.43-11.37-8.55c0,0,2.7-3.54,6-4.72s4.05-3.32,4.53-5.91c0,0,2.22,3-1.63,6.35,0,0,7.23-.81,3.95,2.21,0,0-9.06-.15-1.35,3.76,0,0,7.23,1.26,7.42,4.95s0,6.56-5.3,8.26-4.53,6.42-13,3.69c0,0-1.93,2.36,2.79,14.23S325.55,161.08,325.55,161.08Z" transform="translate(-0.38 -0.61)" style="fill:#fff"/><path d="M329.36,132.44s-2.95,21.15,0,26.23-10.31,0-10.31,0,6.44-16.83,6.67-48.88" transform="translate(-0.38 -0.61)" style="fill:#fff"/><path d="M308.67,166.6A15.7,15.7,0,0,0,302,155c-.26-.19-.52-.39-.79-.61.25.1.49.21.75.3a43.28,43.28,0,0,1-9.63-16.09c1.33-5.84,1-11.27-2.46-16.34.37,2.72.61,6.13-2.35,7.51-1.41-4.58-3.86-11.42,0-15.6,9.28,1.12,12.18,12.73,14.66,20.33,0-.38,0-.79,0-1.21a15.65,15.65,0,0,1-.07,1.85c-1.3,5.34,1.17,9.45,3.68,14.12S310.79,161,308.67,166.6Z" transform="translate(-0.38 -0.61)" style="fill:#8ba936"/><path d="M461.88,127.33c-3.14-1.76-2.55-6.1-2.23-9a25.72,25.72,0,0,0-2.85,19,34.27,34.27,0,0,1-8.32,13.89c.23-.08.15.13-.09.31-4.05,3-6.16,6.33-6.78,11.12-1.88-5.51.21-11.66,2.77-16.3s4.15-8.52,3.17-13.81c-.17-1.31-.08-2-.06-.79,2.22-7.91,4.45-22.19,14.55-22.81C466.34,113.71,463.39,122.14,461.88,127.33Z" transform="translate(-0.38 -0.61)" style="fill:#8ba936"/></svg>