<svg xmlns="http://www.w3.org/2000/svg" viewBox="0 0 790.92 234.6"><title>zombieMonkey</title><path d="M41.65,83.71,37,96.47,33.72,105a76.54,76.54,0,0,1-3.12,8.57q-1.73,4-3.27,8.34L26,126.36l-5.85,17.35-1.31,3.71,6.32.22,13.31.87,2.7-2.18,3.92-2.4-3.46,14.84-6.55,1.41L28.25,160l-6.92.1L7.55,159.2,1.08,159q1.55-4.57,3-8.4c1-2.54,2-5.27,3.07-8.18q2.38-6.21,4.78-12.71t4.61-12.82l4.39-13.09L27,86.33l-4.15.22-3.93.76L12,87.09l-2.84.76-2.85,2.3-.23-10,.23-4.47,3.08-.11H19.94L34,74.44l10.08,1.09Z" transform="translate(-1.08 -0.36)" style="fill:#8ba936"/><path d="M87.83,92.76l4.77,7,2.23,3.81L97.3,113l-.08,5,.15,4.91-.38,4.8-.62,4.8-1.54,9.6-4.38,7.64-2.24,3.82L85.14,156,82,158.11l-3.54.44-6.77,1.52-7-.21-3.31-1.64-3.15-2.29A29.3,29.3,0,0,1,55.42,153a34.46,34.46,0,0,1-2.54-3.33c-.71-1.09-1.23-1.91-1.53-2.45s-.57-1-.77-1.48a10.8,10.8,0,0,1-.58-1.52c-.18-.58-.5-1.46-1-2.62a42.87,42.87,0,0,1-2.08-7,48.94,48.94,0,0,1-.89-6.87,63.58,63.58,0,0,1,0-7q.2-3.6.58-7.63l.77-4.8,2.69-9.06,2.7-3.38,2.46-3.49,9.39-6.44,7.08-1a14.35,14.35,0,0,1,4.35.65,21.42,21.42,0,0,1,4,1.75,35.66,35.66,0,0,1,3.81,2.51C85.12,90.76,86.44,91.75,87.83,92.76ZM71.67,149l3.54-.88,3.15-2.5,4.16-8.19,1.92-9.6v-4.91L83.75,118l-2.08-9.16-1.15-4.69-2.39-3.71-3-2.73-3.46-1.2L65.51,101l-2.93,2.94L61,108.36,59.5,118l-.23,4.91-.46,4.91.62,5,3.23,8.84,2.39,3.82Z" transform="translate(-1.08 -0.36)" style="fill:#8ba936"/><path d="M120.08,86.11l1.15,4.47.24,5,5.46,22.91,2.46,9.06L130.7,132l1.08,5.34,1.46-5.23,1.77-9.28,1.16-4.58,2-9.27,1.46-4.36c.51-1.68.91-3.22,1.19-4.64s.63-2.93,1-4.53l2.31-8.73c.67-.07,1.23-.14,1.7-.21l1.34-.22a8.58,8.58,0,0,1,1.35-.11h1.77l6.47.54,6.69-.54-2.62,4.58L160.49,99l.46,9.49c.05,1.46.07,2.77,0,3.93s-.05,2.31-.08,3.44-.06,2.25-.11,3.38-.08,2.34-.08,3.65v4.8l-.31,9.6.39,17.79,2.23,3.82-2,.27-2.77.32c-.95.11-1.85.21-2.69.28s-1.45.11-1.81.11l-3.24-.77-3.15.11-3-.22,2-3.92,1.08-8.4a18.32,18.32,0,0,0,0-2.51c-.08-1.38-.16-2.87-.23-4.48s-.17-3.14-.27-4.63-.16-2.53-.16-3.11l.08-4.91-.46-9.93.61-4.91-.07-4.14c-.26,1.45-.43,2.47-.5,3a14.42,14.42,0,0,1-.27,1.48,12.41,12.41,0,0,1-.47,1.36c-.2.51-.53,1.45-1,2.83s-.73,2.19-1,2.84-.41,1.26-.54,1.8-.25,1.17-.38,1.86-.3,1.69-.5,3c-.16.8-.35,1.89-.58,3.27s-.49,2.8-.77,4.25-.54,2.84-.77,4.15-.42,2.25-.58,2.84a23.24,23.24,0,0,1-.73,2.23c-.33.91-.66,1.82-1,2.73l-.92,2.51c-.28.76-.48,1.29-.58,1.58l-1.08,4.8-.54,5.56-1.57-.27-2.2-.33c-.77-.11-1.49-.19-2.15-.27s-1.16-.11-1.46-.11l-3.93.66-1.15-4.69-.16-5.13-2.23-9.17-1.31-4.58-3.39-13.74c-.1-.37-.29-1-.57-2s-.59-1.92-.93-2.94-.64-1.93-.92-2.73a11.82,11.82,0,0,1-.42-1.31l-.54-4.91-1.31-4.91q-.31,2.63-.42,3.6a13.65,13.65,0,0,0-.12,1.53c0,.36,0,.84,0,1.42s.06,1.67.11,3.27v18.93q0,5.07-.15,9.44a12.78,12.78,0,0,0,0,1.79c0,.84.08,1.72.16,2.62s.15,1.8.23,2.68.14,1.49.19,1.85l.92,3.93,1.77,4.36h-3.31l-6.77-.22-3.39.44,2.62-4.25a8.82,8.82,0,0,0,.15-1.42c0-.8.11-1.68.16-2.62s.09-1.84.11-2.67,0-1.37,0-1.59l-.23-4.8.23-14.4.08-9.6-.31-9.6.08-4.8L101.76,95l.54-4.37-2.54-4,3.23-.66,10,.44Z" transform="translate(-1.08 -0.36)" style="fill:#8ba936"/><path d="M195.59,89.06a11.88,11.88,0,0,1,1,1.09c.56.65,1.15,1.38,1.77,2.18s1.18,1.54,1.69,2.23a8.22,8.22,0,0,1,.85,1.26l1,5,.31,5.12-.54,4.8-2.62,8.62,2.47,3.39,1.77,4.36,1,4.8.46,5-.31,5-1.08,4.8-2,4-2.62,3.38-3.07,2.4L192.28,158a27.05,27.05,0,0,1-2.77.49c-1.28.19-2.65.37-4.08.55s-2.81.31-4.12.38a18.1,18.1,0,0,1-2.81,0L169,160l-3.23-.11,2.62-4.69.31-4.26c.05-.87.05-1.91,0-3.11s-.12-2.43-.2-3.71-.14-2.52-.19-3.76-.08-2.29-.08-3.16l.39-4.8-.08-9.5-.07-9.49-.08-4.8.38-4.69-.15-4.8L168,90.8,166,86.55l3.08-.66,6.31.11a41.17,41.17,0,0,1,10.16.16A43.82,43.82,0,0,1,195.59,89.06ZM182.27,113.6l3.39-.22,2.92-2.62.7-4.8-.54-5c-1-.73-1.67-1.24-2.08-1.53s-.77-.53-1.08-.71a3.16,3.16,0,0,0-1.11-.38c-.44-.07-1.17-.26-2.2-.55a27.67,27.67,0,0,1,0,2.89c-.05,1.13-.11,2.26-.19,3.39s-.15,2.16-.23,3.1-.12,1.6-.12,2Zm0,34.37,3.47-.11,3.23-2.19,2.54-3.6.08-5.12-.54-4.8-2.23-3.6-3.08-2.29-3.93-.66c.21,1.82.36,3.07.46,3.76s.17,1.26.2,1.7a13.59,13.59,0,0,1,0,1.63c-.05.66-.11,1.86-.16,3.6l-.15,10.58Z" transform="translate(-1.08 -0.36)" style="fill:#8ba936"/><path d="M224.3,91l-.62,8-.15,9.49v4.8l-.15,9.6-.16,4.8.08,9.6.08,4.8.38,13,2.62,5.12-3.31.11-3.16-.11-9.54-.11-3.31-.21,2.31-4.8.07-4.26V137.17q0-5.79.24-11.51t.23-12.28l.15-4.8.08-9.49.07-4.25-.77-4.15-2.15-3.93c1-.21,1.67-.36,2.08-.43l1.08-.17a5.89,5.89,0,0,1,1,0c.39,0,1.07.1,2,.17l6.39.22h3.16l3.39.43Z" transform="translate(-1.08 -0.36)" style="fill:#8ba936"/><path d="M255.7,98.33a39.66,39.66,0,0,1-4.08,0l-6.08-.11-.46,9.82c-.05,1.23-.09,2.18-.11,2.83a16,16,0,0,0,0,1.7c0,.47.06,1,.11,1.63s.16,1.51.31,2.67a12.14,12.14,0,0,1,4.43.17,12.78,12.78,0,0,0,4.27.27l2.85-1,3.69-3.38-.23,9.92-.08,9.71-3.23-3.38-6-.65-5.62.32-.08,4.26.23,9.16-.38,5.78,3.69.77,3.7-.66,3.69.11a7.15,7.15,0,0,0,1.15-.16c.57-.11,1.16-.24,1.77-.38s1.2-.29,1.74-.44a3.42,3.42,0,0,0,1.11-.44l3.54-2.72c-.25,1.74-.47,3.2-.65,4.36s-.37,2.24-.58,3.22-.46,2-.77,3.11-.69,2.47-1.15,4.14l-3.08.22-3.39.55-3.38.11-3.39.32a18.8,18.8,0,0,1-1.93.11,9.3,9.3,0,0,1-1.5-.11l-1.5-.21c-.51-.08-1.13-.19-1.84-.33-1.34-.22-2.21-.38-2.62-.49a4,4,0,0,0-1-.17,3.24,3.24,0,0,0-.89.17,16.47,16.47,0,0,1-2.31.38c-.72.07-1.35.11-1.88.11h-1.54a11,11,0,0,1-1.5-.11l-1.85-.22,2.31-4.25.54-8.4-.23-4.8.15-4.69.38-4.8v-4.7l-.15-19.09-.08-9.49L231.15,95,230.61,91l-1.85-4.69,6.93.54,3.39-.32,3.39.21,6.77-.43,6.77.22,7-.66-.77,10.58.07,4.91L259.78,98Q257.78,98.23,255.7,98.33Z" transform="translate(-1.08 -0.36)" style="fill:#8ba936"/><path d="M510.29,80.51l1.54,10a36.76,36.76,0,0,0,1.57,7.09c.75,2.26,1.58,4.44,2.51,6.55l4.38,18.54,1.62,9.61,1.54,3.7,1.31-3.81,2.23-9.28,2.46-9.16,1-4.69,1.24-4.58q.84-3.49,1.38-7.15t1.31-7.14l2.31-9.5,6.62-.32,6.39,1.09,3.23-.87,3.39-.11L554.62,86l-.69,12.66v9.81l-.69,19.64-.31,9.82a15.94,15.94,0,0,0-.08,1.91c0,.91,0,1.87,0,2.89s.05,2,.08,2.94,0,1.64,0,2.08c0,1,0,1.85,0,2.51s0,1.29,0,1.91,0,1.25.08,1.9.15,1.53.3,2.62l.7,4,2.46,5.34-3.46-.54-3.16-.55-9.62-.1-3.23.76,2.15-4.8.77-4.15v-9.27q.08-7.31.31-15t.08-15.22l-.47-10,.16-5.78q-1.77,7.2-4,14a58.24,58.24,0,0,0-1.54,6.87c-.41,2.47-.83,4.76-1.23,6.87l-2.08,9.06L526.37,156l-.84,4.69-.93,4.36-7.92.55-2.7-9.49-3.46-14.18-.85-4.91-1.77-9.71-2.23-9.49q-.62-3.28-1.12-5.62c-.33-1.57-.69-3.06-1.07-4.48s-.79-2.85-1.2-4.3-.9-3.17-1.46-5.13l-.54,5.56v9.71l.31,4.8-.08,4.91.08,4.8-.08,19.53.39,9.05.84,4,1.85,4.36-2.35.28-2.92.32c-1,.11-1.95.2-2.85.28s-1.58.1-2,.1l-3.54-.32,2.62-4.91-.16-4.15.16-8.94.23-14.73-.39-9.82.08-4.91.69-19.63-.54-13.1-2.84-5,3.61.21,10,.77Z" transform="translate(-1.08 -0.36)" style="fill:#8ba936"/><path d="M600.73,98l4.77,7,2.23,3.82,2.47,9.38-.08,5,.15,4.91-.38,4.8-.62,4.8-1.54,9.6-4.38,7.64-2.24,3.82-3.08,2.5-3.15,2.08-3.54.43-6.78,1.53-7-.22-3.31-1.63-3.16-2.29a31.82,31.82,0,0,1-2.77-2.89,34.46,34.46,0,0,1-2.54-3.33c-.72-1.09-1.23-1.91-1.54-2.46s-.56-1-.76-1.47a11,11,0,0,1-.58-1.53c-.18-.58-.5-1.45-1-2.62a42.76,42.76,0,0,1-2.08-7,48.89,48.89,0,0,1-.89-6.88,63.4,63.4,0,0,1,0-7q.19-3.6.58-7.64l.77-4.8,2.69-9,2.7-3.38,2.46-3.5,9.39-6.43,7.08-1a14,14,0,0,1,4.35.65,21.05,21.05,0,0,1,4,1.75A32.45,32.45,0,0,1,596.76,95Zm-16.17,56.18,3.55-.87,3.15-2.51,4.16-8.18,1.92-9.6v-4.91l-.69-4.91L594.57,114l-1.15-4.69L591,105.6l-3-2.73-3.47-1.2-6.15,4.47-2.93,3-1.54,4.47-1.54,9.6-.23,4.91-.46,4.91.62,5,3.23,8.83,2.39,3.82Z" transform="translate(-1.08 -0.36)" style="fill:#8ba936"/><path d="M628.28,95.23l1.47,4.26,2.15,3.82,1.85,3.92,3.39,8.29c.15.3.41.82.77,1.59s.73,1.56,1.11,2.4.74,1.63,1.08,2.4.58,1.32.73,1.69l1.39,4.36,3.38,8.29,1.93,3.6c.1-1.31.18-2.32.23-3s.09-1.38.11-2,0-1.23,0-2,0-1.74,0-3.05l-.07-5.13.31-5.13-.24-10.25.24-5.13-.7-4L647.22,96l-2.46-4.59,3.54-.1,3.38-.11,6.93.21L656.46,96a8.74,8.74,0,0,0-.12,1.58c0,.84-.05,1.73-.08,2.67s0,1.84,0,2.67v1.37l-.84,4.8-.16,4.69.39,4.8.46,14.29-.15,4.69-.54,4.8.15,9.49-.08,4.26,1,4,2,4.48-1.85.16q-.76.06-1.5.06h-1.54a17.64,17.64,0,0,1-1.81-.11c-1.13-.08-1.91-.15-2.35-.22a4.21,4.21,0,0,0-1.08-.06c-.28,0-.65.11-1.11.22s-1.28.27-2.46.49l-4.93-12.76-1.62-4.26-5.54-12-1.92-3.92-1.7-4.15-1.92-3.93-1.54-4.25-1.92-3.27.23,9.71-.16,15.27-.46,5.13.15,5.12-.15,4.26.69,4.14,2.31,4.48-3.38.43-3.47-.87-3.38.44-3.47.21,2.62-4.69a6.9,6.9,0,0,0,.11-1.36c0-.76,0-1.62,0-2.56v-4.26l-.15-4.8.08-4.8c0-1.38,0-3-.12-4.75a42.87,42.87,0,0,1,0-4.85c0-1.24.18-2.78.38-4.64a44.31,44.31,0,0,0,.31-5L615.51,109l-.31-13.09-2.62-4.48c.87.15,1.55.24,2,.28s.94,0,1.35,0h1.38c.52,0,1.21,0,2.08-.11l1.89-.16c.54,0,1-.09,1.5-.16s1-.15,1.5-.22,1.17-.18,1.89-.33Z" transform="translate(-1.08 -0.36)" style="fill:#8ba936"/><path d="M677.7,96l-.15,13.31v2.29c0,.94,0,1.93-.08,2.94s-.09,2-.12,2.95,0,1.71,0,2.29l.16,4.8,1.92-3.82,4.08-8.51,2.31-4,2.08-4.26,3.54-7.85.39-4L698.48,91l6.85.43L703.25,94l-2.54,1.75c-.1.15-.38.67-.84,1.58s-1,1.91-1.47,3-1.2,2.55-2.07,4.36l-6.78,12.77-2.69,4.14,1.85,4.59,2.46,3.81,1.77,4.26,3.46,8.84L702,155.89l1.93,4,1.77,2.72,2.15,1.75-3.23.65-3.31.33-6.54-.33-3.24-.32-3.38-8.19-1.62-4.14L685,148.25l-3.38-8.18-1.93-3.82L677,140.73l-.08,11.34.62,4c.15,1.45.23,2.4.23,2.83a4.48,4.48,0,0,0,.15,1.2,8.67,8.67,0,0,0,.62,1.48q.45.93,1.77,3.54l-3.39-.11-9.54-.11-3.16.11h-3.31l2.39-4.8.77-8.4v-9.49l-.16-9.49-.15-9.49.07-4.8.31-9.49-.31-9.06L663,96.11l-1.85-4.37,3.08.22a10.92,10.92,0,0,1,4.73-.44,20.55,20.55,0,0,0,4.81.11h6.39Z" transform="translate(-1.08 -0.36)" style="fill:#8ba936"/><path d="M736.35,103.52a34.71,34.71,0,0,1-4.08,0l-6.08-.1-.46,9.81c-.05,1.24-.09,2.19-.12,2.84s0,1.22,0,1.69.07,1,.12,1.64.15,1.51.31,2.67a12.08,12.08,0,0,1,4.42.16,13.07,13.07,0,0,0,4.27.28l2.85-1,3.7-3.39-.23,9.93-.08,9.71-3.23-3.38-6-.66-5.62.33-.07,4.26.23,9.16-.39,5.78,3.7.76,3.69-.65,3.7.11a8.8,8.8,0,0,0,1.15-.16c.56-.11,1.16-.24,1.77-.39s1.19-.29,1.73-.43a3.88,3.88,0,0,0,1.12-.44l3.54-2.73c-.26,1.75-.48,3.21-.66,4.37s-.37,2.23-.57,3.22-.46,2-.77,3.11-.69,2.47-1.16,4.14l-3.08.22-3.38.54-3.39.11-3.39.33c-.76.07-1.41.11-1.92.11a10.59,10.59,0,0,1-1.5-.11l-1.5-.22c-.52-.07-1.13-.18-1.85-.32-1.33-.22-2.21-.39-2.62-.5a3.93,3.93,0,0,0-1-.16,3,3,0,0,0-.88.16,17.58,17.58,0,0,1-2.31.39c-.72.07-1.35.11-1.89.11h-1.54a11,11,0,0,1-1.5-.11c-.51-.08-1.13-.15-1.85-.22l2.31-4.26.54-8.4-.23-4.8.16-4.69.38-4.8v-4.69l-.15-19.09-.08-9.49-.69-4.15-.54-3.93-1.85-4.69,6.93.55,3.38-.33,3.39.22,6.77-.44,6.78.22,7-.65-.77,10.58.08,4.91-2.54-3.38C739.09,103.34,737.74,103.45,736.35,103.52Z" transform="translate(-1.08 -0.36)" style="fill:#8ba936"/><path d="M776.45,131.45q-.15,2.52-.27,5.73c-.07,2.15-.13,4.35-.15,6.6s0,4.44,0,6.55.15,4,.3,5.67l.39,3.93,2.15,5.34-3.38-.33L766,164.4l-6.54.76,2.62-4.91.08-13.2L762.6,133c-.06-.22-.31-1-.77-2.46s-1-3-1.5-4.69-1.06-3.29-1.54-4.74-.79-2.29-.89-2.51L756,114l-3.31-9.49-1.31-5.13-1.77-5-3.31-2.84c1,.15,2.08.26,3.15.33a15.08,15.08,0,0,0,3.16-.11l6.39-.33,6.47-.32L765,95.67l2.08,8.18,2.39,8.29.69,4.48,1.77,3.38,4.16-11.46a23.15,23.15,0,0,1,.77-3.16c.35-1.16.71-2.31,1.07-3.44s.68-2.23,1-3.32a11.74,11.74,0,0,0,.42-2.84l-1-4.8,6.93.43,6.77.11-2.39,2.35a4.41,4.41,0,0,0-.84,1,5.86,5.86,0,0,0-.46,1.3,27.58,27.58,0,0,1-1.24,3.17l-2.77,9.16L781,116.29l-2.61,8.29Z" transform="translate(-1.08 -0.36)" style="fill:#8ba936"/><path d="M450.38,92.94c-.3-3.4-.78-6.64-1.37-9.81-.95-5.24-2.15-10.22-3.11-15.42a93.7,93.7,0,0,1-1.72-16.33h0A163.35,163.35,0,0,1,428,43.14c-16.93-9.71-35.32-23.09-50.74-34.69l-5.05-3.81L366.57.37h0V.54c0,.13,0,.26,0,.39l-.76-.57a36.75,36.75,0,0,0,3.34,15.24,90.56,90.56,0,0,1-28.29-10c.08.17.17.33.25.5-.33-.17-.67-.33-1-.51A29.13,29.13,0,0,0,355,20.6c-20.76,9.63-38.62,21.86-50.81,41.67,3.67,19.3-3,21.43-5.4,37.46-22.51-9.48-21.55,8.71-19,25.66h0c1.42,11.57,3.13,23.85,8.48,34.17-.57-2.7-2.1-9.18,3.1-8.92a2.15,2.15,0,0,1,1.08.37c.35.4.7.78,1.06,1.16,2.71,4.46,1.88,17.45,1,21.08a45.7,45.7,0,0,0,5.1-16.53c.1.05.2.11.3.15,1.16,4.92,1.85,10,.51,14.91,1.56-2.51,3.21-5.1,4.59-7.81-.06,5.67-.14,11.34-.4,17,2.85-4.21,6.11-8,8.8-12.34.86,7.4,1.93,14.41,3.5,21.89,9.37,9.27,25.85,19.93,36.37,24.83,10.3,4.79-1.42.69,6.87,6.81-1.72,0-3.42.06-5.09.14s-3.28.19-4.91.3c-2.4.16-4.81.34-7.25.48l-1,.06h0l1.63.32-2.18.14c9.59,1.85,19.13,4,28.63,6.21-1.19.85-2.4,1.67-3.61,2.48s-2.24,1.47-3.37,2.18h0l0,0h.24c-.25.15-.5.31-.76.45,31.31-.19,38.72-10.05,49.35-23.85,1.1-1.38,2.23-2.8,3.42-4.25a120.62,120.62,0,0,1,13.33-14.16c.06-.22.11-.43.16-.64,1.12-2.93,2.29-5.82,3.44-8.72a34.49,34.49,0,0,0,4.11-10.89c.09-.26.19-.51.27-.77a75.41,75.41,0,0,0,6.9,14.76c-.88-8.07.16-16.28.9-24.45a31.5,31.5,0,0,0,4.84,7.52c-1.56-4.91-.19-10.33,1.11-15.2.7,5.76,1.93,11.1,5.73,15.56-1.84-4.05-2.23-20.57,2.52-20.82s4.28,4.41,4,7.1c5.21-10.3,6.12-23.75,7.66-35.21v0C471,106,472.75,81.57,450.38,92.94Z" transform="translate(-1.08 -0.36)" style="fill:#231f20"/><path d="M309.1,166.2a15.67,15.67,0,0,0-6.69-11.63l-.79-.62c.25.11.49.22.75.31a43.22,43.22,0,0,1-9.62-16.08c1.33-5.83,1-11.26-2.46-16.32.37,2.71.61,6.12-2.35,7.5-1.4-4.58-3.85-11.41,0-15.59,9.27,1.12,12.17,12.73,14.64,20.31q0-.57,0-1.2a15.81,15.81,0,0,1-.06,1.85c-1.31,5.33,1.16,9.43,3.68,14.1S311.21,160.55,309.1,166.2Z" transform="translate(-1.08 -0.36)" style="fill:#8ba936"/><path d="M341.11,156.19c23.51,16.13,48.1,15.82,60.18,14.34,4.62-.57,7.89-4.14,7.75-8.5-.42-13.05-4.66-39.72-32.06-42.75-18-2-29.28,24.15-43.32,31.17" transform="translate(-1.08 -0.36)" style="fill:#8ba936"/><path d="M392.62,129.09s-2.06,2.71-3.29,4.28-5.41,10.27-5.8,14.41c0,0,5-13,10.77-10.42l2.32-3.28Z" transform="translate(-1.08 -0.36)" style="fill:#231f20"/><path d="M392.62,129.09l4,5-2.32,3.28a3.74,3.74,0,0,0-1.53-.33c-5.07,0-9.24,10.75-9.24,10.75.39-4.14,4.58-12.84,5.8-14.41s3.29-4.28,3.29-4.28m0-3.08-1.47,1.93s-2.07,2.72-3.28,4.26c-1.32,1.7-5.76,10.74-6.19,15.4l-1.27,13.54,4.91-12.68c1.5-3.84,4.91-9.54,7.48-9.54a1.94,1.94,0,0,1,.76.17l1.42.64.89-1.27,2.33-3.29L399,134l-.89-1.11-4-5-1.51-1.9Z" transform="translate(-1.08 -0.36)" style="fill:#231f20"/><path d="M363.7,128.57s2.06,2.71,3.29,4.28,5.41,10.27,5.8,14.41c0,0-5-13-10.77-10.41l-2.32-3.29Z" transform="translate(-1.08 -0.36)" style="fill:#231f20"/><path d="M363.7,128.57s2.06,2.71,3.29,4.28,5.41,10.27,5.8,14.41c0,0-4.16-10.75-9.24-10.75a3.6,3.6,0,0,0-1.53.34l-2.32-3.29,4-5m0-3.07-1.52,1.89-4,5-.89,1.11.82,1.17,2.33,3.28.89,1.27,1.42-.64a1.94,1.94,0,0,1,.76-.17c2.57,0,6,5.7,7.48,9.55l4.91,12.62-1.27-13.48c-.43-4.67-4.87-13.71-6.19-15.4s-3.26-4.24-3.28-4.27l-1.46-1.92Z" transform="translate(-1.08 -0.36)" style="fill:#231f20"/><path d="M376.56,176.85a28.81,28.81,0,0,1-4.34-21.31s-8.77,11.36-7.49,22.67S377.35,183,376.56,176.85Z" transform="translate(-1.08 -0.36)" style="fill:#fff"/><path d="M378.62,176.48a27.29,27.29,0,0,0,4.11-20.18s8.31,10.76,7.1,21.47S377.88,182.27,378.62,176.48Z" transform="translate(-1.08 -0.36)" style="fill:#fff"/><path d="M363.12,172.68s-7.06-18.34-3-38.3c0,0-11.11,17.8-11.13,36.28C349,180.34,363.44,182.66,363.12,172.68Z" transform="translate(-1.08 -0.36)" style="fill:#fff"/><path d="M391.8,177.45s7.06-18.34,3-38.3c0,0,11.52,17.8,11.13,36.28S391.48,187.43,391.8,177.45Z" transform="translate(-1.08 -0.36)" style="fill:#fff"/><path d="M409.66,169.65s-3.27,17.36-58.82,0c0,0-10.07,1.64-9.43,10.9,0,0,3-4.78,7.87-2,0,0-3.48,4.2-1.93,12.87,0,0,3.87-9.83,7.87-10.27A37.58,37.58,0,0,0,351.48,197s2.22-7.08,5.43-6.07c0,0-.53,13.16,8.63,18.8,0,0-1.94-12.29.51-14.9,0,0,1.81,2.17,1.29,4.34,0,0,3.74-8.53,2.94-11.13,0,0,.71,8.31-2,14.28s3.29,16.81,3.29,16.81-.13-17.86,4.71-19.45c0,0-6.68,13.16,3.58,23.13,0,0,.32-6.43,1.48-6.65,0,0,.83,6.35,3,7.31,0,0,.06-7.6,1.42-8.61s7-15.62,6.26-21c0,0,3.74,6.36-1,14.46,0,0,9.74-2.89,9.48-19.74,0,0,2.71,6.44,1.36,12.08,0,0,5-6.44,5.48-11,0,0,1.94,2.67,1.42,5.13C408.75,194.79,419.79,185.56,409.66,169.65Z" transform="translate(-1.08 -0.36)" style="fill:#8ba936"/><path d="M389.49,118.6s-13.59-9.07-28.55,0c0,0,4.27-11.36,9.76-13.81,0,0,2.29-7.67-1.79-6.51s-2.79-3.11-.79-3.4,11.74-1.59,14.06,1.08-2.58,2.61-2.58,2.61-2.78-.58.38,7.08C380,105.65,388.8,114.62,389.49,118.6Z" transform="translate(-1.08 -0.36)" style="fill:#8ba936"/><path d="M322.32,79.26s15.4-11.57,40.77,0c0,0,16.25-4.34,24.76,0,0,0,26-13.76,44.38,2.61,0,0,1.55-21.7-36.64-17.94,0,0-24.73,9.26-38.68,1.45S328.26,66.25,322.32,79.26Z" transform="translate(-1.08 -0.36)" style="fill:#8ba936"/><path d="M423.28,81.87a41.56,41.56,0,0,0-8.8-1.74,44.85,44.85,0,0,0-8.9,0l-1.11.11c-.37,0-.73.12-1.09.18-.73.13-1.46.24-2.18.39A43.53,43.53,0,0,0,397,82a39.86,39.86,0,0,0-8,3.64l-.48.27-.57-.18a53.61,53.61,0,0,0-6.5-1.59,48.3,48.3,0,0,0-6.64-.72,31.32,31.32,0,0,0-6.52.44A17.1,17.1,0,0,0,362.42,86l-.82.5-.9-.48a46.41,46.41,0,0,0-4.85-2.13c-1.68-.63-3.39-1.17-5.11-1.64a42.39,42.39,0,0,0-10.51-1.54,31,31,0,0,0-10.29,1.51,27.07,27.07,0,0,0-9,5.06l-.18.13c.05,0,0,0,0,0l-.12.11c-.08.06-.17.16-.26.24s-.35.38-.52.58a12.54,12.54,0,0,0-.94,1.36c-.3.47-.55,1-.82,1.5s-.48,1-.67,1.62a31.64,31.64,0,0,0-1.69,7c-.18,1.2-.26,2.45-.34,3.65v2.22l0,.44.09.88.09.88a8.55,8.55,0,0,0,.17.88c.13.57.22,1.16.38,1.73l.53,1.7a5.31,5.31,0,0,0,.31.84l.35.82a22.19,22.19,0,0,0,3.86,6,24.07,24.07,0,0,0,5.5,4.64l.77.48c.26.16.54.28.81.42l1.63.81,1.71.65c.29.1.57.23.86.3l.89.24a31.23,31.23,0,0,0,7.29,1.07h-.1a26.69,26.69,0,0,0,4.41-1,28.16,28.16,0,0,0,4.24-1.69,23.06,23.06,0,0,0,3.9-2.42,19.83,19.83,0,0,0,3.3-3.24,20.13,20.13,0,0,1-3,3.58,21.72,21.72,0,0,1-3.77,2.83,29,29,0,0,1-4.26,2.1,28.65,28.65,0,0,1-4.59,1.36h-3c-.33,0-.65-.06-1-.08l-1.95-.2c-.65-.09-1.29-.25-1.94-.38l-1-.2c-.33-.07-.63-.19-.95-.29l-1.89-.6-1.82-.78c-.3-.14-.62-.26-.91-.42l-.87-.48c-.57-.34-1.17-.62-1.71-1l-1.64-1.16c-.54-.39-1-.87-1.52-1.3l-.75-.66-.69-.74a25,25,0,0,1-4.58-6.59l-.43-.91a6.31,6.31,0,0,1-.39-.93l-.68-1.91c-.2-.65-.32-1.32-.48-2-.07-.33-.17-.65-.22-1l-.12-1-.13-1-.06-.5v-.51l0-2c.07-1.32.12-2.62.29-3.94A34.77,34.77,0,0,1,314,91.63a20.25,20.25,0,0,1,1.76-3.75A14.43,14.43,0,0,1,317,86.1c.24-.28.47-.56.75-.84a4.09,4.09,0,0,1,.42-.41l.24-.21.33-.25-.17.13a30.62,30.62,0,0,1,10.19-5.83c.93-.35,1.89-.57,2.84-.83s1.92-.4,2.89-.52A35.62,35.62,0,0,1,340.3,77a46.39,46.39,0,0,1,11.4,1.75,51,51,0,0,1,5.43,1.84,47.84,47.84,0,0,1,5.25,2.47l-1.73,0a20.53,20.53,0,0,1,7.07-2.44,31.37,31.37,0,0,1,7.23-.27,49.83,49.83,0,0,1,7,1,52.74,52.74,0,0,1,6.82,2l-1.06.09a42.94,42.94,0,0,1,8.63-3.41,41.19,41.19,0,0,1,4.51-1c.77-.1,1.53-.16,2.3-.25.38,0,.76-.09,1.14-.1l1.15,0a43.93,43.93,0,0,1,4.59,0l2.27.23,2.26.34A38.27,38.27,0,0,1,423.28,81.87Z" transform="translate(-1.08 -0.36)" style="fill:#8ba936"/><path d="M433.39,88.66A26.69,26.69,0,0,1,438.07,107a27.75,27.75,0,0,1-2.84,9.43,34.59,34.59,0,0,1-5.74,8l-.43.45c-.24.23-.36.33-.54.49s-.66.54-1,.79c-.67.5-1.36,1-2.07,1.41a27,27,0,0,1-4.49,2.19,22.06,22.06,0,0,1-9.89,1.36,19.91,19.91,0,0,1-4.85-1.13,21.81,21.81,0,0,1-2.27-1c-.37-.18-.72-.39-1.07-.59a12,12,0,0,1-1-.63A27.23,27.23,0,0,1,395,121.2a37.54,37.54,0,0,0,7.78,4.92,22.42,22.42,0,0,0,4.2,1.44,19.28,19.28,0,0,0,4.32.54,20.94,20.94,0,0,0,8.39-1.73,24.58,24.58,0,0,0,3.83-2c.62-.39,1.21-.8,1.78-1.24.29-.21.56-.44.82-.67l.34-.29.37-.41a36.51,36.51,0,0,0,5.29-7,31.21,31.21,0,0,0,1.85-4,26.61,26.61,0,0,0,1.22-4.23A31.92,31.92,0,0,0,433.39,88.66Z" transform="translate(-1.08 -0.36)" style="fill:#8ba936"/><path d="M353.8,87.79s15.18,0,7.14,15.77c0,0-1.69,2.31-4-2.61s-5.43-5-5.43-5-2.07-1.21-.91-5.41S353.8,87.79,353.8,87.79Z" transform="translate(-1.08 -0.36)" style="fill:#fff"/><path d="M420.33,85.65s15.18,0,7.14,15.76c0,0-1.69,2.32-4-2.6s-5.43-5-5.43-5-2.07-1.21-.9-5.4S420.33,85.65,420.33,85.65Z" transform="translate(-1.08 -0.36)" style="fill:#fff"/><path d="M414.23,61.47s-10.3-3.37-18.55-1.53-32.41,2.88-36.46,1.53c-10-3.31-23-.79-23-.79s6.84-6.86,24.56-4.24S388.22,56,388.22,56,411.28,54.24,414.23,61.47Z" transform="translate(-1.08 -0.36)" style="fill:#8ba936"/><path d="M462.17,127c-3.14-1.77-2.55-6.1-2.22-9a25.68,25.68,0,0,0-2.85,18.94,34.22,34.22,0,0,1-8.31,13.88c.23-.08.14.13-.1.31-4,3-6.15,6.33-6.77,11.11-1.88-5.51.21-11.65,2.77-16.29s4.15-8.51,3.17-13.79c-.17-1.31-.08-2-.07-.79,2.22-7.9,4.45-22.17,14.55-22.79C466.63,113.35,463.68,121.78,462.17,127Z" transform="translate(-1.08 -0.36)" style="fill:#8ba936"/><circle cx="342.45" cy="164.55" r="5.43" style="fill:#e6e7e8"/><circle cx="327.64" cy="173.83" r="8.69" style="fill:#e6e7e8"/><polyline points="340.94 159.34 324.99 165.55 327.64 182.52 333.49 180.25 345.37 169.12" style="fill:#e6e7e8"/><circle cx="327.64" cy="173.83" r="8.69" style="fill:#808184"/><circle cx="325.93" cy="175.16" r="6.71" style="fill:#f6921e"/><path d="M331,170s.2-65.3-2.12-71.64-2.31-11.94-8.28-16.07-6.74-18.13,7.51-17.69c0,0,11.75,1,13.87,2.51s4.43-.22,2.6-.89-12-2.43-11.36-8.55c0,0,2.7-3.54,6-4.72s4.05-3.31,4.53-5.89c0,0,2.21,3-1.64,6.34,0,0,7.22-.81,4,2.21,0,0-9.05-.15-1.35,3.76,0,0,7.22,1.25,7.42,4.94s0,6.56-5.3,8.25-4.53,6.41-13,3.69c0,0-1.93,2.35,2.79,14.22S331,170,331,170Z" transform="translate(-1.08 -0.36)" style="fill:#fff"/><path d="M334.82,141.37s-2.94,21.13,0,26.2-10.3,0-10.3,0,6.43-16.8,6.66-48.83" transform="translate(-1.08 -0.36)" style="fill:#fff"/></svg>